<svg width="150" height="46" viewBox="0 0 150 46" fill="none" xmlns="http://www.w3.org/2000/svg">
<path d="M38.3059 29.6386C38.3059 27.9411 38.5652 26.468 39.0839 25.2207C39.6025 23.9735 40.3219 22.9381 41.2421 22.1144C42.1623 21.2908 43.2375 20.6805 44.4708 20.282C45.7025 19.8836 47.0306 19.6843 48.4568 19.6843C48.9754 19.6843 49.4814 19.7298 49.9731 19.8192C50.4648 19.9102 50.868 20.0185 51.1795 20.1471V13.8953C51.4388 13.8184 51.853 13.7353 52.4238 13.6443C52.993 13.5549 53.5765 13.5094 54.1741 13.5094C54.7433 13.5094 55.2556 13.5486 55.7094 13.6255C56.1632 13.7023 56.5458 13.8561 56.8573 14.0883C57.1688 14.3205 57.4012 14.6358 57.5578 15.0343C57.7127 15.4328 57.7918 15.9536 57.7918 16.5968V34.8879C57.7918 36.0975 57.221 37.0623 56.081 37.7824C55.3284 38.2719 54.356 38.7033 53.1638 39.0751C51.9716 39.447 50.5976 39.6337 49.0418 39.6337C47.3563 39.6337 45.8463 39.403 44.5103 38.9387C43.1742 38.4758 42.0469 37.8075 41.1267 36.9321C40.2065 36.0583 39.506 35.0087 39.0269 33.7882C38.5463 32.5645 38.3059 31.1823 38.3059 29.6386ZM49.3517 24.8144C47.9508 24.8144 46.8757 25.2129 46.1246 26.0099C45.372 26.8084 44.9973 28.0164 44.9973 29.637C44.9973 31.2325 45.3467 32.4343 46.0471 33.2453C46.7476 34.0564 47.7579 34.4612 49.0797 34.4612C49.5462 34.4612 49.9683 34.3906 50.3431 34.2494C50.7194 34.1082 51.0103 33.9482 51.2174 33.7678V25.2788C50.6988 24.9682 50.0774 24.8144 49.3517 24.8144Z" fill="black" fill-opacity="0.87"/>
<path d="M71.908 39.6321C70.3775 39.6321 68.9577 39.4203 67.6501 38.9952C66.3409 38.57 65.1993 37.9346 64.2285 37.0843C63.2561 36.2356 62.4908 35.1688 61.9343 33.8823C61.3761 32.5959 61.0979 31.0913 61.0979 29.3672C61.0979 27.6697 61.3761 26.2091 61.9343 24.987C62.4908 23.7664 63.2229 22.7624 64.1321 21.978C65.0396 21.1935 66.0768 20.6146 67.2437 20.2413C68.4106 19.8679 69.6028 19.6812 70.8218 19.6812C72.1958 19.6812 73.4465 19.8883 74.5754 20.2993C75.7028 20.7119 76.6751 21.2767 77.4926 21.9968C78.3085 22.7169 78.9441 23.5782 79.3979 24.5822C79.8516 25.5863 80.0777 26.6798 80.0777 27.8627C80.0777 28.7381 79.8311 29.4064 79.3393 29.8692C78.846 30.332 78.1598 30.6285 77.2776 30.7572L67.6722 32.1848C67.9568 33.0336 68.5402 33.6705 69.4225 34.0957C70.3032 34.5193 71.3151 34.7326 72.4551 34.7326C73.5176 34.7326 74.5216 34.5977 75.4687 34.3279C76.4143 34.058 77.1858 33.7427 77.7835 33.3818C78.1978 33.6391 78.5488 34 78.8334 34.4628C79.118 34.9256 79.2603 35.4151 79.2603 35.9296C79.2603 37.0874 78.7164 37.9487 77.627 38.5151C76.7969 38.9528 75.864 39.2477 74.8268 39.403C73.7864 39.5552 72.814 39.6321 71.908 39.6321ZM70.8186 24.4677C70.1973 24.4677 69.6581 24.5713 69.2043 24.7768C68.7505 24.9823 68.3805 25.2474 68.0959 25.5675C67.8098 25.8891 67.5963 26.2499 67.454 26.6484C67.3117 27.0469 67.2263 27.4532 67.201 27.8642L73.8512 26.7833C73.7738 26.2687 73.4876 25.7542 72.9959 25.2396C72.5041 24.725 71.7768 24.4677 70.8186 24.4677Z" fill="black" fill-opacity="0.87"/>
<path d="M92.4801 19.6827C93.9584 19.6827 95.2992 19.8694 96.5056 20.2428C97.7105 20.6162 98.7287 21.0978 99.5588 21.6893C100.077 22.0501 100.485 22.4486 100.784 22.8863C101.081 23.324 101.232 23.8888 101.232 24.5838V38.0899C101.232 39.4532 100.972 40.6299 100.454 41.6214C99.9351 42.6113 99.2284 43.4349 98.3334 44.0907C97.4385 44.7465 96.3886 45.2281 95.1822 45.5372C93.9774 45.8462 92.6872 46 91.3132 46C88.9542 46 87.0995 45.6847 85.7508 45.0556C84.4021 44.4249 83.7286 43.402 83.7286 41.9885C83.7286 41.397 83.8519 40.8746 84.097 40.4259C84.3436 39.9757 84.6219 39.6352 84.9334 39.403C85.6844 39.8141 86.5335 40.1624 87.4806 40.4447C88.4261 40.7271 89.4064 40.8683 90.4167 40.8683C91.8176 40.8683 92.9307 40.6377 93.7608 40.1733C94.5909 39.7105 95.0052 38.9638 95.0052 37.9346V37.3165C93.9411 37.7793 92.6461 38.0115 91.1156 38.0115C89.9487 38.0115 88.8403 37.8389 87.7905 37.4906C86.7406 37.1439 85.8204 36.6027 85.0298 35.87C84.2393 35.1374 83.6036 34.1914 83.1246 33.0336C82.6439 31.8758 82.4052 30.4999 82.4052 28.9044C82.4052 27.3355 82.6581 25.9722 83.1641 24.8144C83.6701 23.6566 84.3689 22.698 85.2638 21.9403C86.1587 21.181 87.2213 20.6162 88.453 20.2428C89.6862 19.8694 91.0286 19.6827 92.4801 19.6827ZM94.8913 25.2772C94.7095 25.1752 94.4439 25.0717 94.0944 24.9682C93.745 24.8662 93.3102 24.8144 92.7916 24.8144C91.5204 24.8144 90.5685 25.169 89.9329 25.8749C89.2973 26.5825 88.9811 27.5913 88.9811 28.9044C88.9811 30.3963 89.2989 31.471 89.9329 32.1268C90.5685 32.7825 91.378 33.1104 92.3631 33.1104C93.4256 33.1104 94.2683 32.8657 94.8913 32.3778V25.2772Z" fill="black" fill-opacity="0.87"/>
<path d="M115.308 39.6321C113.778 39.6321 112.358 39.4203 111.05 38.9952C109.741 38.57 108.6 37.9346 107.629 37.0843C106.657 36.2356 105.891 35.1688 105.335 33.8823C104.777 32.5959 104.498 31.0913 104.498 29.3672C104.498 27.6697 104.777 26.2091 105.335 24.987C105.891 23.7664 106.623 22.7624 107.532 21.978C108.44 21.1935 109.477 20.6146 110.644 20.2413C111.811 19.8679 113.003 19.6812 114.222 19.6812C115.596 19.6812 116.847 19.8883 117.976 20.2993C119.103 20.7119 120.076 21.2767 120.893 21.9968C121.709 22.7169 122.344 23.5782 122.798 24.5822C123.252 25.5863 123.478 26.6798 123.478 27.8627C123.478 28.7381 123.231 29.4064 122.74 29.8692C122.246 30.332 121.56 30.6285 120.678 30.7572L111.073 32.1848C111.357 33.0336 111.941 33.6705 112.823 34.0957C113.704 34.5193 114.716 34.7326 115.856 34.7326C116.918 34.7326 117.922 34.5977 118.869 34.3279C119.815 34.058 120.586 33.7427 121.184 33.3818C121.598 33.6391 121.949 34 122.234 34.4628C122.518 34.9256 122.661 35.4151 122.661 35.9296C122.661 37.0874 122.117 37.9487 121.027 38.5151C120.197 38.9528 119.264 39.2477 118.227 39.403C117.188 39.5552 116.216 39.6321 115.308 39.6321ZM114.221 24.4677C113.599 24.4677 113.06 24.5713 112.606 24.7768C112.153 24.9823 111.783 25.2474 111.498 25.5675C111.212 25.8891 110.998 26.2499 110.856 26.6484C110.714 27.0469 110.628 27.4532 110.603 27.8642L117.253 26.7833C117.176 26.2687 116.89 25.7542 116.398 25.2396C115.905 24.725 115.179 24.4677 114.221 24.4677Z" fill="black" fill-opacity="0.87"/>
<path d="M126.509 15.0515C126.509 14.0741 126.84 13.2505 127.501 12.5822C128.161 11.9139 129.037 11.5781 130.125 11.5781C131.215 11.5781 132.089 11.9123 132.75 12.5822C133.411 13.2521 133.741 14.0741 133.741 15.0515C133.741 16.0289 133.411 16.8526 132.75 17.5209C132.089 18.1908 131.215 18.5249 130.125 18.5249C129.036 18.5249 128.161 18.1908 127.501 17.5209C126.84 16.8526 126.509 16.0305 126.509 15.0515ZM133.431 38.9763C133.145 39.0281 132.725 39.0987 132.168 39.1881C131.61 39.2775 131.047 39.323 130.476 39.323C129.905 39.323 129.393 39.2854 128.939 39.2069C128.486 39.1301 128.103 38.9763 127.791 38.7441C127.48 38.5135 127.24 38.1982 127.072 37.7981C126.903 37.3996 126.819 36.8788 126.819 36.2355V20.5315C127.104 20.4797 127.526 20.4091 128.082 20.3197C128.641 20.2303 129.203 20.1848 129.774 20.1848C130.345 20.1848 130.856 20.2224 131.311 20.3009C131.765 20.3777 132.147 20.533 132.457 20.7637C132.769 20.9943 133.008 21.3112 133.177 21.7097C133.344 22.1082 133.43 22.629 133.43 23.2722V38.9763H133.431Z" fill="black" fill-opacity="0.87"/>
<path d="M144.243 32.5708C144.243 33.2407 144.457 33.716 144.885 33.9984C145.314 34.2824 145.916 34.422 146.694 34.422C147.083 34.422 147.484 34.3906 147.899 34.3263C148.313 34.262 148.677 34.1788 148.988 34.0753C149.22 34.3592 149.421 34.673 149.59 35.0197C149.758 35.3664 149.843 35.7853 149.843 36.2732C149.843 37.2522 149.475 38.0491 148.735 38.6657C147.997 39.2838 146.694 39.5913 144.827 39.5913C142.545 39.5913 140.788 39.0767 139.557 38.0476C138.325 37.0184 137.71 35.346 137.71 33.0304V16.5184C137.994 16.4415 138.402 16.3584 138.935 16.2674C139.467 16.178 140.029 16.1325 140.627 16.1325C141.767 16.1325 142.656 16.3317 143.291 16.7302C143.927 17.1287 144.245 17.9712 144.245 19.2576V21.727H149.339C149.494 22.0109 149.644 22.3639 149.787 22.7875C149.929 23.2111 150 23.6817 150 24.1963C150 25.0968 149.799 25.7463 149.398 26.1448C148.996 26.5448 148.458 26.7425 147.783 26.7425H144.245V32.5708H144.243Z" fill="black" fill-opacity="0.87"/>
<path d="M29.0026 14.1713V16.1622C27.5069 17.2556 25.657 17.9036 23.6552 17.9036C19.2044 17.9036 15.5077 14.7079 14.7677 10.5002C15.9156 10.2382 17.111 10.1002 18.3363 10.1002C22.4394 10.1002 26.1803 11.6408 29.0026 14.1713ZM23.6552 0C18.6715 0 14.6333 4.00838 14.6333 8.95022C14.6333 9.47735 14.6792 9.99663 14.7677 10.5002C15.9156 10.2382 17.111 10.1002 18.3363 10.1002C22.4394 10.1002 26.1803 11.6408 29.0026 14.1713V1.73984C27.5069 0.646361 25.657 0 23.6552 0Z" fill="#25CCB3"/>
<path d="M29.0026 18.1546V41.557C25.9226 44.3181 21.8417 45.9999 17.3639 45.9999C7.77279 45.9999 -3.05176e-05 38.2859 -3.05176e-05 28.7709C-3.05176e-05 20.5816 5.75528 13.7289 13.4696 11.9781C14.2776 16.5685 18.311 20.056 23.1682 20.056C25.3518 20.0545 27.3709 19.3485 29.0026 18.1546ZM26.4175 28.7694C26.4175 23.8087 22.3634 19.7862 17.3639 19.7862C12.3644 19.7862 8.31038 23.8087 8.31038 28.7694C8.31038 33.73 12.3644 37.7525 17.3639 37.7525C22.3634 37.7525 26.4175 33.7316 26.4175 28.7694Z" fill="#0B57A7"/>
</svg>
